<svg width="37" height="36" viewBox="0 0 37 36" fill="none" xmlns="http://www.w3.org/2000/svg">
<path d="M15.3321 15.1021C14.3061 15.1021 13.4961 16.0021 13.4961 17.1001C13.4961 18.1981 14.3241 19.0981 15.3321 19.0981C16.3581 19.0981 17.1681 18.1981 17.1681 17.1001C17.1861 16.0021 16.3581 15.1021 15.3321 15.1021ZM21.9021 15.1021C20.8761 15.1021 20.0661 16.0021 20.0661 17.1001C20.0661 18.1981 20.8941 19.0981 21.9021 19.0981C22.9281 19.0981 23.7381 18.1981 23.7381 17.1001C23.7381 16.0021 22.9281 15.1021 21.9021 15.1021Z" fill="white"/>
<path d="M30.6498 0H6.52984C4.49584 0 2.83984 1.656 2.83984 3.708V28.044C2.83984 30.096 4.49584 31.752 6.52984 31.752H26.9418L25.9878 28.422L28.2918 30.564L30.4698 32.58L34.3398 36V3.708C34.3398 1.656 32.6838 0 30.6498 0ZM23.7018 23.508C23.7018 23.508 23.0538 22.734 22.5138 22.05C24.8718 21.384 25.7718 19.908 25.7718 19.908C25.0338 20.394 24.3318 20.736 23.7018 20.97C22.8018 21.348 21.9378 21.6 21.0918 21.744C19.3638 22.068 17.7798 21.978 16.4298 21.726C15.4038 21.528 14.5218 21.24 13.7838 20.952C13.3698 20.79 12.9198 20.592 12.4698 20.34C12.4158 20.304 12.3618 20.286 12.3078 20.25C12.2718 20.232 12.2538 20.214 12.2358 20.196C11.9118 20.016 11.7318 19.89 11.7318 19.89C11.7318 19.89 12.5958 21.33 14.8818 22.014C14.3418 22.698 13.6758 23.508 13.6758 23.508C9.69784 23.382 8.18584 20.772 8.18584 20.772C8.18584 14.976 10.7778 10.278 10.7778 10.278C13.3698 8.334 15.8358 8.388 15.8358 8.388L16.0158 8.604C12.7758 9.54 11.2818 10.962 11.2818 10.962C11.2818 10.962 11.6778 10.746 12.3438 10.44C14.2698 9.594 15.7998 9.36 16.4298 9.306C16.5378 9.288 16.6278 9.27 16.7358 9.27C17.8338 9.126 19.0758 9.09 20.3718 9.234C22.0818 9.432 23.9178 9.936 25.7898 10.962C25.7898 10.962 24.3678 9.612 21.3078 8.676L21.5598 8.388C21.5598 8.388 24.0258 8.334 26.6178 10.278C26.6178 10.278 29.2098 14.976 29.2098 20.772C29.2098 20.772 27.6798 23.382 23.7018 23.508Z" fill="white"/>
</svg>
