<svg width="192" height="74" viewBox="0 0 192 74" fill="none" xmlns="http://www.w3.org/2000/svg">
<g clip-path="url(#clip0_17_638)">
<path d="M61.8141 2.66064H36.9493C29.0764 2.66064 24.2891 6.3915 22.5873 13.8532L16.5107 40.4483H64.977L71.045 13.8532C72.7582 6.39724 69.6813 2.66638 61.8141 2.66064ZM54.8695 20.8958L53.4771 26.9743H34.1302L35.5139 20.8958C35.6107 20.1553 35.9873 19.48 36.5661 19.0091C37.1449 18.5382 37.8818 18.3077 38.6252 18.3647H52.9529C54.6145 18.3647 55.2534 19.2083 54.8695 20.8958Z" fill="#EC1488"/>
<path d="M6.74707 66.8194H21.238L27.2543 40.4824H12.7549L6.74707 66.8194Z" fill="#EC1488"/>
<path d="M40.6279 66.8194H55.2048L61.2212 40.4824H46.6357L40.6279 66.8194Z" fill="#EC1488"/>
<path d="M77.5173 50.7019H69.5929C68.6021 50.6254 67.6198 50.9329 66.8489 51.561C66.0779 52.1891 65.5772 53.0898 65.4502 54.0771L63.4648 62.7727C62.9376 65.0686 63.7971 66.2166 66.0432 66.2166H68.2349C68.7935 66.2166 69.0084 66.5266 68.8709 67.1465C68.8117 67.3924 68.7282 67.6318 68.6217 67.8611C68.4327 68.1602 68.2011 68.4299 67.9341 68.6618L64.2813 72.4672C64.0007 72.7044 63.8071 73.0287 63.7312 73.3885C63.6452 73.7845 63.9633 73.9825 64.6938 73.9825H67.4785C67.8341 73.9812 68.1852 73.9038 68.5084 73.7553C68.8316 73.6068 69.1193 73.3906 69.3522 73.1215L74.8099 67.2928C75.682 66.5014 76.4424 65.5949 77.0704 64.5981C77.6015 63.6757 77.9871 62.6767 78.2135 61.6364L79.9324 54.0426C80.4567 51.8213 79.6832 50.7019 77.5173 50.7019Z" fill="#EC1488"/>
<path d="M75.961 37.779H84.2206C86.3522 37.779 87.67 36.6829 88.1742 34.4903L90.3487 24.9507C90.8472 22.7524 90.0307 21.6531 87.8992 21.6531H79.9748C78.9968 21.5709 78.0244 21.8669 77.2573 22.48C76.4901 23.0932 75.9863 23.9772 75.8492 24.9507L73.6748 34.4903C73.1763 36.6857 73.9326 37.779 75.961 37.779Z" fill="#EC1488"/>
<path d="M111.673 45.8032L111.003 40.4824H95.7725L99.7089 66.8194H113.529L129.799 40.4824H114.767L111.673 45.8032Z" fill="#EC1488"/>
<path d="M132.051 17.2622L118.522 40.4825H133.555L147.9 17.2622H132.051Z" fill="#EC1488"/>
<path d="M111.827 17.2622H96.0645L99.5282 40.4825H114.758L111.827 17.2622Z" fill="#EC1488"/>
<path d="M191.51 28.9197C193.281 21.1423 190.236 17.2565 182.374 17.2622H151.355L148.192 31.115H173.9C175.584 31.115 176.235 31.9589 175.851 33.6464L174.991 37.357C174.164 36.9641 173.259 36.764 172.344 36.7716H155.747C151.656 36.7716 148.447 38.0086 146.121 40.4824H188.837L191.51 28.9197Z" fill="#EC1488"/>
<path d="M142.373 40.448C140.443 42.6462 139.134 45.3215 138.583 48.1967L136.907 55.5408C135.188 63.0025 137.93 66.7333 145.132 66.7333H167.719C175.312 66.7333 179.993 62.8475 181.763 55.0758L185.115 40.3877L142.373 40.448ZM168.802 48.0504L168.012 51.4943C167.953 51.9929 167.706 52.4498 167.32 52.7704C166.934 53.091 166.44 53.2506 165.94 53.2162H153.598C152.472 53.2162 152.042 52.648 152.3 51.4943L153.091 48.0504C153.147 47.551 153.395 47.0928 153.781 46.7718C154.167 46.4508 154.662 46.2919 155.162 46.3285H167.462C168.622 46.3888 169.069 46.957 168.802 48.0849V48.0504Z" fill="#EC1488"/>
<path d="M55.0672 -0.0170898H30.2024C22.3353 -0.0170898 17.5479 3.71376 15.8404 11.1755L9.77246 37.7792H58.1958L64.2723 11.1755C65.997 3.71376 62.9287 -0.0170898 55.0672 -0.0170898ZM48.1227 18.2181L46.7302 24.2966H27.3489L28.7413 18.2181C28.836 17.4782 29.2108 16.8031 29.7882 16.332C30.3656 15.861 31.1016 15.6301 31.844 15.6869H46.163C47.882 15.6984 48.5352 16.5478 48.1227 18.2353V18.2181Z" fill="#03F3F3"/>
<path d="M0 64.168H14.4995L20.5073 37.8311H6.01638L0 64.168Z" fill="#03F3F3"/>
<path d="M33.8809 64.168H48.4663L54.4741 37.8311H39.8972L33.8809 64.168Z" fill="#03F3F3"/>
<path d="M70.7695 48.0422H62.8451C61.8548 47.9677 60.8736 48.2759 60.1032 48.9036C59.3327 49.5312 58.8314 50.4307 58.7024 51.4171L56.717 60.1129C56.1956 62.4088 57.0551 63.5568 59.2954 63.5568H61.4871C62.0544 63.5568 62.2606 63.8666 62.1231 64.4865C62.0692 64.7339 61.9855 64.9739 61.8739 65.2012C61.685 65.5003 61.4533 65.77 61.1863 66.0018L57.5335 69.8074C57.2508 70.0464 57.057 70.3739 56.9834 70.7371C56.8975 71.1245 57.2155 71.3227 57.9461 71.3227H60.7737C61.1296 71.3231 61.4812 71.2462 61.8047 71.0976C62.1281 70.949 62.4156 70.7321 62.6474 70.4618L68.1137 64.6416C68.9793 63.8432 69.7364 62.9342 70.3655 61.9381C70.9006 61.0176 71.2865 60.018 71.5087 58.9764L73.2276 51.3826C73.7175 49.1699 72.9011 48.0422 70.7695 48.0422Z" fill="#03F3F3"/>
<path d="M69.2144 35.1188H77.474C79.6055 35.1188 80.912 34.0253 81.4277 31.8298L83.6021 22.2903C84.1064 20.0977 83.2899 18.9987 81.1526 18.9929H73.2281C72.2511 18.9109 71.2799 19.2069 70.5141 19.8203C69.7483 20.4336 69.2463 21.3175 69.1112 22.2903L66.9281 31.8298C66.4296 34.0282 67.1917 35.1245 69.2144 35.1188Z" fill="#03F3F3"/>
<path d="M104.926 43.1432L104.256 37.8311H89.0342L92.962 64.168H106.783L123.053 37.8311H108.02L104.926 43.1432Z" fill="#03F3F3"/>
<path d="M125.312 14.6021L111.775 37.8309H126.808L141.153 14.6021H125.312Z" fill="#03F3F3"/>
<path d="M105.08 14.6021H89.3174L92.7897 37.8309H108.011L105.08 14.6021Z" fill="#03F3F3"/>
<path d="M184.763 26.2596C186.545 18.4936 183.5 14.6078 175.627 14.6021H144.608L141.454 28.4551H167.152C168.837 28.4551 169.487 29.2988 169.103 30.9863L168.244 34.6971C167.417 34.3053 166.512 34.105 165.597 34.1115H148.991C144.9 34.1115 141.692 35.3513 139.365 37.8309H182.107L184.763 26.2596Z" fill="#03F3F3"/>
<path d="M135.626 37.8651C133.694 40.0609 132.388 42.7375 131.845 45.6138L130.126 52.9578C128.407 60.4195 131.149 64.1648 138.351 64.1935H160.938C168.519 64.1935 173.197 60.3076 174.974 52.536L178.326 37.8564L135.626 37.8651ZM162.056 45.4588L161.265 48.9027C161.208 49.4021 160.961 49.8603 160.575 50.1813C160.189 50.5023 159.694 50.6612 159.193 50.6246H146.886C145.76 50.6246 145.33 50.065 145.588 48.9027L146.379 45.4588C146.435 44.9594 146.682 44.5012 147.068 44.1802C147.454 43.8592 147.949 43.7004 148.45 43.7369H160.749C161.875 43.7369 162.313 44.2965 162.056 45.4244V45.4588Z" fill="#03F3F3"/>
<path d="M62.1488 37.8137H49.9785L50.2793 36.505H62.4926L67.6495 13.8875C67.8793 12.9089 68.0231 11.9122 68.0793 10.9086H58.3671L58.6593 9.59987H68.0363C67.7613 4.98509 64.5554 2.66064 58.3757 2.66064H33.5109C25.638 2.66064 20.8506 6.3915 19.1489 13.8532L13.0723 40.4483H9.31637L5.08773 59.0022H13.0723L12.7801 60.3109H4.78688L3.30859 66.794H17.7995L23.8159 40.4483H43.1972L37.1808 66.794H51.792L57.8084 40.4483H61.5644L62.1488 37.8137ZM30.6917 26.9743L32.0755 20.8958C32.1723 20.1553 32.5489 19.48 33.1276 19.0091C33.7064 18.5382 34.4434 18.3077 35.1868 18.3646H49.5144C51.199 18.3646 51.8493 19.2083 51.4654 20.8958L50.0731 26.9743H30.6917Z" fill="#23024E"/>
<path d="M74.0788 50.7019H66.1544C65.1636 50.6254 64.1813 50.9329 63.4104 51.561C62.6394 52.1891 62.1387 53.0898 62.0117 54.0771L60.0263 62.7727C59.4991 65.0686 60.3586 66.2166 62.6047 66.2166H64.7964C65.3551 66.2166 65.5699 66.5266 65.4324 67.1465C65.3732 67.3924 65.2897 67.6318 65.1832 67.8611C64.9942 68.1602 64.7626 68.4299 64.4956 68.6618L60.8428 72.4672C60.5622 72.7044 60.3687 73.0287 60.2927 73.3885C60.2068 73.7845 60.5248 73.9825 61.2553 73.9825H64.0401C64.3956 73.9812 64.7468 73.9038 65.0699 73.7553C65.3931 73.6068 65.6808 73.3906 65.9137 73.1215L71.3715 67.2928C72.2435 66.5014 73.004 65.5949 73.6319 64.5981C74.163 63.6757 74.5486 62.6767 74.775 61.6364L75.0758 60.3105H65.0714L65.3722 59.0018H75.3852L76.5112 54.0426C77.0183 51.8213 76.2447 50.7019 74.0788 50.7019Z" fill="#23024E"/>
<path d="M84.4617 21.6531H76.5373C75.5593 21.5709 74.5869 21.8669 73.8198 22.48C73.0526 23.0932 72.5488 23.9772 72.4117 24.9507L70.2373 34.4903C69.7388 36.6857 70.4951 37.779 72.5235 37.779H80.7831C82.9147 37.779 84.2325 36.6829 84.7367 34.4903L86.9112 24.9507C87.4097 22.7581 86.5932 21.6589 84.4617 21.6531Z" fill="#23024E"/>
<path d="M128.613 17.2622L115.085 40.4825H111.329L108.234 45.8032L107.564 40.4825H111.32L109.154 23.3234H99.5966L99.8888 22.0147H108.991L108.389 17.2622H92.6262L96.0899 40.4825H92.334L96.2704 66.8194H110.091L114.096 60.3449H104.367L104.668 59.0363H114.904L126.361 40.4825H130.117L144.462 17.2622H128.613Z" fill="#23024E"/>
<path d="M178.369 24.9507L178.661 23.642H188.468C187.935 19.3831 184.758 17.2509 178.936 17.2451H147.918L144.755 31.0979H170.462C172.146 31.0979 172.797 31.9418 172.413 33.6293L171.553 37.3399C170.726 36.947 169.821 36.7469 168.906 36.7545H152.309C148.218 36.7545 145.01 37.9915 142.683 40.4653H138.927C136.997 42.6635 135.688 45.3388 135.137 48.214L133.461 55.5581C133.2 56.6894 133.042 57.842 132.988 59.002H143.19L142.889 60.3106H133.005C133.341 64.6155 136.229 66.7937 141.686 66.7937H164.273C171.866 66.7937 176.547 62.9079 178.317 55.1362L181.669 40.4481H185.4L188.038 28.8854C188.35 27.5908 188.514 26.265 188.528 24.9335L178.369 24.9507ZM165.365 48.0677L164.574 51.5116C164.516 52.0102 164.268 52.4671 163.883 52.7877C163.497 53.1083 163.003 53.2679 162.503 53.2335H150.161C149.035 53.2335 148.605 52.6653 148.863 51.5116L149.645 48.0677C149.704 47.5676 149.952 47.1093 150.34 46.7885C150.727 46.4677 151.224 46.3091 151.725 46.3458H164.024C165.185 46.3888 165.631 46.9571 165.365 48.085V48.0677Z" fill="#23024E"/>
</g>
<defs>
<clipPath id="clip0_17_638">
<rect width="192" height="74" fill="white"/>
</clipPath>
</defs>
</svg>
