<svg width="37" height="36" viewBox="0 0 37 36" fill="none" xmlns="http://www.w3.org/2000/svg">
<g clip-path="url(#clip0_17_649)">
<path d="M11.8252 32.6251C25.4068 32.6251 32.8374 21.3702 32.8374 11.6129C32.8374 11.2965 32.8304 10.9731 32.8163 10.6567C34.2618 9.61131 35.5092 8.3165 36.5 6.83307C35.1538 7.43202 33.7245 7.82319 32.2609 7.99323C33.8019 7.06948 34.9558 5.61833 35.5086 3.90877C34.0588 4.76796 32.4734 5.37404 30.8202 5.70104C29.7063 4.51746 28.2335 3.7338 26.6295 3.4712C25.0256 3.2086 23.3798 3.4817 21.9466 4.24827C20.5134 5.01484 19.3727 6.23218 18.7008 7.71209C18.0288 9.192 17.8631 10.852 18.2293 12.4356C15.2937 12.2883 12.4219 11.5257 9.79997 10.1973C7.17804 8.86886 4.86454 7.00428 3.00945 4.7244C2.0666 6.34999 1.77808 8.27359 2.20255 10.1043C2.62701 11.9349 3.73259 13.5353 5.29461 14.5801C4.12194 14.5429 2.97496 14.2271 1.94844 13.659V13.7504C1.94739 15.4563 2.53715 17.11 3.61746 18.4303C4.69778 19.7506 6.20199 20.656 7.87437 20.9926C6.78808 21.2898 5.64797 21.3331 4.54227 21.1192C5.01418 22.5863 5.93236 23.8695 7.16866 24.7896C8.40495 25.7098 9.89768 26.221 11.4385 26.252C8.82264 28.3068 5.59126 29.4213 2.26484 29.416C1.67493 29.4151 1.0856 29.379 0.5 29.3078C3.87928 31.4757 7.8103 32.6272 11.8252 32.6251Z" fill="white"/>
</g>
<defs>
<clipPath id="clip0_17_649">
<rect width="36" height="36" fill="white" transform="translate(0.5)"/>
</clipPath>
</defs>
</svg>
