<svg width="36" height="36" viewBox="0 0 36 36" fill="none" xmlns="http://www.w3.org/2000/svg">
<g clip-path="url(#clip0_17_643)">
<path d="M32.5146 14.7272C32.0418 14.7722 31.585 14.9219 31.1774 15.1656C30.7698 15.4093 30.4217 15.7407 30.1583 16.1359C29.8949 16.531 29.7229 16.98 29.6548 17.4499C29.5868 17.9199 29.6243 18.3992 29.7648 18.8528L18.8667 24.878C18.5634 24.4064 18.1413 24.0231 17.6428 23.7664C17.1443 23.5098 16.587 23.3889 16.027 23.4159C15.467 23.443 14.924 23.617 14.4525 23.9205C13.9811 24.224 13.5979 24.6462 13.3414 25.1448L3.5378 20.0598C2.93632 19.7416 2.46377 19.2248 2.20065 18.5973C1.95991 17.9685 1.83363 17.3017 1.82779 16.6285C1.80049 15.9471 1.99691 15.2754 2.38709 14.716C2.50377 14.5626 2.66843 14.4527 2.85484 14.4038C3.04125 14.3548 3.23868 14.3697 3.41565 14.446H3.43012L14.5949 20.3764C14.9396 20.5597 15.3237 20.6563 15.7141 20.6577C16.1045 20.6591 16.4893 20.5653 16.8353 20.3844L34.141 11.3298C34.2604 11.2675 34.3601 11.1731 34.4288 11.0573C34.4975 10.9415 34.5324 10.8088 34.5298 10.6741C34.5271 10.5395 34.4869 10.4083 34.4136 10.2952C34.3404 10.1822 34.2371 10.0919 34.1153 10.0344L21.7403 4.14584C21.3319 3.95165 20.8847 3.85288 20.4325 3.85706C19.9803 3.86124 19.535 3.96823 19.1303 4.16994L3.05726 12.1912L2.1203 12.6589C2.08376 12.6765 2.04928 12.698 2.01745 12.7231C1.83772 12.8074 1.66611 12.908 1.50477 13.0237C1.11821 13.316 0.794375 13.683 0.552517 14.1029C0.31066 14.5228 0.155722 14.9871 0.0969085 15.4682V15.4682C0.0969085 15.4682 -0.0991629 16.1962 0.0969085 17.858C0.0969085 17.8741 0.0969085 17.8853 0.0969085 17.8982C0.17807 18.7008 0.45248 19.4718 0.896664 20.1452C1.34085 20.8186 1.94158 21.3744 2.64744 21.7649L3.4028 22.1571L13.0457 27.1585C13.1783 27.9312 13.5906 28.6281 14.204 29.1165C14.8174 29.6048 15.5889 29.8504 16.3717 29.8065C17.1545 29.7626 17.8938 29.4323 18.4488 28.8785C19.0037 28.3247 19.3355 27.586 19.381 26.8033L30.8721 20.4503C31.2852 20.7678 31.7697 20.9795 32.2833 21.0669C32.7969 21.1544 33.3241 21.115 33.819 20.9521C34.314 20.7893 34.7616 20.5079 35.1229 20.1326C35.4842 19.7572 35.7483 19.2992 35.8922 18.7984C36.0361 18.2977 36.0554 17.7693 35.9484 17.2594C35.8415 16.7495 35.6115 16.2735 35.2785 15.8727C34.9455 15.472 34.5196 15.1587 34.0379 14.9602C33.5562 14.7617 33.0332 14.6839 32.5146 14.7337V14.7272ZM17.2242 26.0753C17.3413 26.2951 17.3846 26.5466 17.3479 26.7929C17.3112 27.0391 17.1963 27.2671 17.0203 27.4431C16.8442 27.6192 16.6163 27.734 16.37 27.7708C16.1237 27.8075 15.8722 27.7641 15.6524 27.6471C15.4324 27.5344 15.2531 27.3557 15.1398 27.136C15.0229 26.916 14.9798 26.6643 15.0167 26.418C15.0535 26.1716 15.1685 25.9436 15.3446 25.7675C15.5208 25.5914 15.7488 25.4764 15.9951 25.4395C16.2415 25.4026 16.4932 25.4458 16.7132 25.5626C16.9325 25.6764 17.1111 25.8556 17.2242 26.0753V26.0753ZM33.863 17.3759C33.9786 17.5959 34.0208 17.8471 33.9834 18.0928C33.9461 18.3386 33.8311 18.5659 33.6554 18.7417C33.4796 18.9174 33.2523 19.0323 33.0066 19.0697C32.7608 19.107 32.5096 19.0648 32.2896 18.9492C32.0703 18.836 31.8917 18.6574 31.7785 18.4382C31.6617 18.2182 31.6185 17.9665 31.6554 17.7201C31.6923 17.4738 31.8073 17.2458 31.9834 17.0696C32.1595 16.8935 32.3875 16.7785 32.6339 16.7417C32.8802 16.7048 33.1319 16.7479 33.3519 16.8648C33.5719 16.9792 33.7506 17.1596 33.863 17.3806V17.3759Z" fill="white"/>
</g>
<defs>
<clipPath id="clip0_17_643">
<rect width="36" height="36" fill="white"/>
</clipPath>
</defs>
</svg>
