<svg width="100" height="38" viewBox="0 0 100 38" fill="none" xmlns="http://www.w3.org/2000/svg">
<g clip-path="url(#clip0_26_1728)">
<path d="M32.1951 1.3662H19.2447C15.1442 1.3662 12.6508 3.28204 11.7645 7.11372L8.59961 20.7707H33.8425L37.0029 7.11372C37.8952 3.28499 36.2926 1.36914 32.1951 1.3662ZM28.5781 10.7302L27.8529 13.8516H17.7764L18.4971 10.7302C18.5475 10.3499 18.7436 10.0032 19.0451 9.76136C19.3465 9.51956 19.7304 9.40115 20.1176 9.43042H27.5799C28.4453 9.43042 28.7781 9.86366 28.5781 10.7302Z" fill="#EC1488"/>
<path d="M3.51367 34.3127H11.061L14.1945 20.7884H6.64273L3.51367 34.3127Z" fill="#EC1488"/>
<path d="M21.1602 34.3127H28.7523L31.8858 20.7884H24.2892L21.1602 34.3127Z" fill="#EC1488"/>
<path d="M40.3729 26.0362H36.2456C35.7296 25.9969 35.218 26.1549 34.8164 26.4774C34.4149 26.7999 34.1541 27.2625 34.0879 27.7694L33.0539 32.2347C32.7793 33.4137 33.227 34.0032 34.3968 34.0032H35.5383C35.8293 34.0032 35.9412 34.1624 35.8696 34.4807C35.8387 34.607 35.7952 34.73 35.7398 34.8477C35.6413 35.0013 35.5207 35.1398 35.3816 35.2589L33.4791 37.213C33.333 37.3348 33.2322 37.5013 33.1926 37.6861C33.1479 37.8895 33.3135 37.9911 33.694 37.9911H35.1444C35.3296 37.9904 35.5125 37.9507 35.6808 37.8744C35.8491 37.7982 35.9989 37.6872 36.1202 37.549L38.9628 34.5559C39.417 34.1495 39.8131 33.684 40.1401 33.1721C40.4168 32.6985 40.6176 32.1855 40.7355 31.6512L41.6308 27.7517C41.9039 26.6111 41.501 26.0362 40.3729 26.0362Z" fill="#EC1488"/>
<path d="M39.5629 19.4001H43.8649C44.975 19.4001 45.6614 18.8372 45.924 17.7113L47.0566 12.8126C47.3162 11.6837 46.8909 11.1192 45.7808 11.1192H41.6535C41.1441 11.077 40.6377 11.229 40.2381 11.5439C39.8385 11.8587 39.5761 12.3127 39.5047 12.8126L38.3722 17.7113C38.1126 18.8387 38.5065 19.4001 39.5629 19.4001Z" fill="#EC1488"/>
<path d="M58.1633 23.5206L57.8141 20.7884H49.8818L51.9321 34.3127H59.1302L67.6042 20.7884H59.7748L58.1633 23.5206Z" fill="#EC1488"/>
<path d="M68.7764 8.86446L61.7305 20.7884H69.5598L77.0311 8.86446H68.7764Z" fill="#EC1488"/>
<path d="M58.2431 8.86446H50.0332L51.8372 20.7884H59.7695L58.2431 8.86446Z" fill="#EC1488"/>
<path d="M99.7448 14.8508C100.667 10.857 99.0808 8.86154 94.9863 8.86449H78.8307L77.1833 15.9781H90.5725C91.4499 15.9781 91.7886 16.4114 91.5886 17.278L91.141 19.1834C90.7103 18.9817 90.2389 18.8789 89.7622 18.8828H81.1182C78.9873 18.8828 77.3161 19.518 76.1045 20.7884H98.3526L99.7448 14.8508Z" fill="#EC1488"/>
<path d="M74.1527 20.7707C73.1472 21.8995 72.4656 23.2733 72.1785 24.7497L71.3056 28.521C70.4103 32.3527 71.8383 34.2685 75.5896 34.2685H87.3538C91.308 34.2685 93.7462 32.2731 94.6683 28.2823L96.4142 20.7397L74.1527 20.7707ZM87.9178 24.6746L87.506 26.4431C87.4756 26.6991 87.3466 26.9338 87.1457 27.0984C86.9448 27.263 86.6875 27.345 86.4272 27.3273H79.9989C79.4125 27.3273 79.1887 27.0355 79.323 26.4431L79.7348 24.6746C79.7642 24.4181 79.8929 24.1828 80.094 24.018C80.2951 23.8532 80.553 23.7716 80.8137 23.7904H87.2195C87.8238 23.8213 88.0566 24.1131 87.9178 24.6923V24.6746Z" fill="#EC1488"/>
<path d="M28.6809 -0.00883484H15.7304C11.633 -0.00883484 9.13956 1.90701 8.25023 5.73869L5.08984 19.4001H30.3103L33.4752 5.73869C34.3735 1.90701 32.7754 -0.00883484 28.6809 -0.00883484ZM25.0639 9.35518L24.3387 12.4766H14.2442L14.9694 9.35518C15.0188 8.97525 15.214 8.62854 15.5147 8.38665C15.8155 8.14476 16.1987 8.0262 16.5855 8.05538H24.0433C24.9386 8.06128 25.2788 8.49749 25.0639 9.36404V9.35518Z" fill="#03F3F3"/>
<path d="M0 32.951H7.55182L10.6809 19.4266H3.13353L0 32.951Z" fill="#03F3F3"/>
<path d="M17.6465 32.951H25.2431L28.3721 19.4266H20.78L17.6465 32.951Z" fill="#03F3F3"/>
<path d="M36.8588 24.6702H32.7315C32.2157 24.632 31.7047 24.7902 31.3034 25.1125C30.9021 25.4348 30.6411 25.8967 30.5739 26.4033L29.5398 30.8687C29.2682 32.0477 29.7159 32.6372 30.8827 32.6372H32.0242C32.3197 32.6372 32.4271 32.7962 32.3555 33.1146C32.3274 33.2416 32.2838 33.3649 32.2257 33.4816C32.1273 33.6352 32.0066 33.7737 31.8675 33.8927L29.965 35.8469C29.8178 35.9697 29.7169 36.1379 29.6786 36.3244C29.6338 36.5233 29.7994 36.6251 30.1799 36.6251H31.6527C31.838 36.6253 32.0212 36.5858 32.1896 36.5095C32.3581 36.4332 32.5078 36.3218 32.6286 36.183L35.4756 33.1942C35.9264 32.7842 36.3208 32.3174 36.6484 31.8059C36.9271 31.3333 37.1281 30.8199 37.2438 30.2851L38.1391 26.3856C38.3943 25.2493 37.969 24.6702 36.8588 24.6702Z" fill="#03F3F3"/>
<path d="M36.049 18.034H40.3509C41.4611 18.034 42.1415 17.4725 42.4101 16.3451L43.5426 11.4464C43.8053 10.3205 43.38 9.75609 42.2668 9.75314H38.1395C37.6307 9.71102 37.1248 9.86303 36.7259 10.178C36.3271 10.493 36.0656 10.9468 35.9953 11.4464L34.8583 16.3451C34.5986 17.4739 34.9955 18.0369 36.049 18.034Z" fill="#03F3F3"/>
<path d="M54.6491 22.1545L54.2999 19.4266H46.3721L48.4178 32.951H55.616L64.09 19.4266H56.2606L54.6491 22.1545Z" fill="#03F3F3"/>
<path d="M65.2672 7.49831L58.2168 19.4266H66.0462L73.5174 7.49831H65.2672Z" fill="#03F3F3"/>
<path d="M54.7294 7.49831H46.5195L48.328 19.4266H56.2559L54.7294 7.49831Z" fill="#03F3F3"/>
<path d="M96.2307 13.4846C97.1588 9.49669 95.5726 7.50125 91.4722 7.49831H75.3166L73.6737 14.612H87.0584C87.9358 14.612 88.2745 15.0453 88.0745 15.9118L87.6269 17.8174C87.196 17.6162 86.7248 17.5133 86.2482 17.5167H77.5996C75.4688 17.5167 73.7976 18.1533 72.5859 19.4266H94.8475L96.2307 13.4846Z" fill="#03F3F3"/>
<path d="M70.6384 19.4443C69.6319 20.5719 68.9515 21.9464 68.6687 23.4234L67.7734 27.1947C66.8781 31.0264 68.3061 32.9496 72.0574 32.9643H83.8216C87.7698 32.9643 90.2065 30.9689 91.1316 26.978L92.8775 19.4399L70.6384 19.4443ZM84.4035 23.3438L83.9917 25.1123C83.9623 25.3688 83.8336 25.6041 83.6325 25.7689C83.4314 25.9337 83.1735 26.0153 82.9128 25.9965H76.5025C75.9161 25.9965 75.6923 25.7092 75.8266 25.1123L76.2384 23.3438C76.2678 23.0874 76.3965 22.8521 76.5976 22.6873C76.7987 22.5224 77.0566 22.4408 77.3173 22.4596H83.7231C84.3095 22.4596 84.5378 22.747 84.4035 23.3261V23.3438Z" fill="#03F3F3"/>
<path d="M32.3696 19.4178H26.0309L26.1876 18.7458H32.5486L35.2345 7.13132C35.3542 6.62884 35.4291 6.11699 35.4584 5.60161H30.3999L30.5521 4.92958H35.436C35.2927 2.55983 33.623 1.3662 30.4044 1.3662H17.454C13.3535 1.3662 10.8601 3.28204 9.97377 7.11372L6.8089 20.7707H4.85269L2.65027 30.2983H6.8089L6.65669 30.9704H2.49357L1.72363 34.2995H9.27097L12.4045 20.7707H22.4989L19.3654 34.2995H26.9754L30.109 20.7707H32.0652L32.3696 19.4178ZM15.9857 13.8516L16.7064 10.7302C16.7568 10.3499 16.9529 10.0032 17.2544 9.76136C17.5558 9.51956 17.9397 9.40115 18.3269 9.43042H25.7892C26.6666 9.43042 27.0053 9.86366 26.8053 10.7302L26.0801 13.8516H15.9857Z" fill="white"/>
<path d="M38.5829 26.0362H34.4556C33.9395 25.9969 33.4279 26.1549 33.0264 26.4774C32.6249 26.7999 32.3641 27.2625 32.2979 27.7694L31.2638 32.2347C30.9893 33.4137 31.4369 34.0032 32.6068 34.0032H33.7483C34.0392 34.0032 34.1511 34.1624 34.0795 34.4807C34.0487 34.607 34.0052 34.73 33.9497 34.8477C33.8513 35.0013 33.7307 35.1398 33.5916 35.2589L31.6891 37.213C31.543 37.3348 31.4422 37.5013 31.4026 37.6861C31.3578 37.8895 31.5235 37.9911 31.904 37.9911H33.3543C33.5395 37.9904 33.7224 37.9507 33.8907 37.8744C34.059 37.7982 34.2089 37.6872 34.3302 37.549L37.1728 34.5559C37.627 34.1495 38.023 33.684 38.3501 33.1721C38.6267 32.6985 38.8275 32.1855 38.9454 31.6512L39.1021 30.9703H33.8915L34.0482 30.2983H39.2633L39.8497 27.7517C40.1138 26.6111 39.7109 26.0362 38.5829 26.0362Z" fill="white"/>
<path d="M43.9907 11.1192H39.8634C39.3541 11.077 38.8476 11.229 38.4481 11.5439C38.0485 11.8587 37.7861 12.3127 37.7147 12.8126L36.5822 17.7113C36.3225 18.8387 36.7165 19.4001 37.7729 19.4001H42.0748C43.185 19.4001 43.8714 18.8372 44.134 17.7113L45.2665 12.8126C45.5262 11.6866 45.1009 11.1222 43.9907 11.1192Z" fill="white"/>
<path d="M66.986 8.86446L59.9401 20.7884H57.9838L56.3723 23.5207L56.0231 20.7884H57.9794L56.8513 11.977H51.8734L52.0256 11.3049H56.7662L56.4529 8.86446H48.243L50.047 20.7884H48.0908L50.141 34.3127H57.3392L59.4253 30.988H54.3579L54.5146 30.316H59.846L65.8132 20.7884H67.7694L75.2407 8.86446H66.986Z" fill="white"/>
<path d="M92.9004 12.8126L93.0526 12.1405H98.1603C97.8828 9.95353 96.228 8.85858 93.1959 8.85564H77.0403L75.3929 15.9692H88.7821C89.6595 15.9692 89.9982 16.4026 89.7982 17.2691L89.3506 19.1746C88.9199 18.9728 88.4485 18.8701 87.9718 18.874H79.3278C77.197 18.874 75.5257 19.5092 74.3141 20.7795H72.3579C71.3524 21.9083 70.6708 23.2821 70.3838 24.7586L69.5108 28.5299C69.3748 29.1108 69.2924 29.7027 69.2646 30.2983H74.5782L74.4215 30.9704H69.2736C69.4482 33.181 70.9523 34.2995 73.7948 34.2995H85.559C89.5132 34.2995 91.9514 32.3041 92.8736 28.3132L94.6194 20.7707H96.5622L97.9365 14.8331C98.0987 14.1683 98.1843 13.4875 98.1916 12.8037L92.9004 12.8126ZM86.1275 24.6835L85.7157 26.4519C85.6853 26.708 85.5563 26.9426 85.3554 27.1072C85.1545 27.2719 84.8972 27.3538 84.6369 27.3362H78.2086C77.6222 27.3362 77.3984 27.0444 77.5327 26.4519L77.9401 24.6835C77.9705 24.4266 78.1001 24.1913 78.302 24.0265C78.5038 23.8618 78.7622 23.7804 79.0234 23.7992H85.4292C86.0335 23.8213 86.2663 24.1131 86.1275 24.6923V24.6835Z" fill="white"/>
</g>
<defs>
<clipPath id="clip0_26_1728">
<rect width="100" height="38" fill="white"/>
</clipPath>
</defs>
</svg>
