<svg width="74" height="29" viewBox="0 0 74 29" fill="none" xmlns="http://www.w3.org/2000/svg">
<g clip-path="url(#clip0_39_1838)">
<path d="M23.824 1.04263H14.2406C11.2063 1.04263 9.36118 2.50472 8.70529 5.4289L6.36328 15.8513H25.043L27.3817 5.4289C28.042 2.50697 26.8561 1.04488 23.824 1.04263ZM21.1474 8.18886L20.6107 10.571H13.1541L13.6874 8.18886C13.7247 7.89863 13.8699 7.634 14.0929 7.44947C14.316 7.26494 14.6 7.17457 14.8866 7.19691H20.4087C21.0491 7.19691 21.2953 7.52754 21.1474 8.18886Z" fill="#EC1488"/>
<path d="M2.60059 26.186H8.18562L10.5044 15.8648H4.91609L2.60059 26.186Z" fill="#EC1488"/>
<path d="M15.6587 26.186H21.2768L23.5957 15.8648H17.9742L15.6587 26.186Z" fill="#EC1488"/>
<path d="M29.8764 19.8698H26.8222C26.4403 19.8397 26.0617 19.9603 25.7646 20.2064C25.4674 20.4526 25.2744 20.8055 25.2255 21.1924L24.4603 24.6002C24.2571 25.4999 24.5884 25.9498 25.4541 25.9498H26.2988C26.5141 25.9498 26.5969 26.0713 26.5439 26.3142C26.5211 26.4106 26.4889 26.5044 26.4478 26.5943C26.375 26.7115 26.2857 26.8172 26.1828 26.9081L24.775 28.3994C24.6668 28.4924 24.5922 28.6194 24.563 28.7604C24.5298 28.9156 24.6524 28.9932 24.934 28.9932H26.0072C26.1443 28.9927 26.2796 28.9624 26.4042 28.9042C26.5287 28.846 26.6396 28.7613 26.7294 28.6558L28.8329 26.3716C29.169 26.0614 29.4621 25.7062 29.7041 25.3155C29.9088 24.9541 30.0574 24.5626 30.1447 24.1549L30.8072 21.1789C31.0093 20.3084 30.7111 19.8698 29.8764 19.8698Z" fill="#EC1488"/>
<path d="M29.2767 14.8053H32.4601C33.2817 14.8053 33.7896 14.3758 33.9839 13.5165L34.822 9.77803C35.0141 8.91652 34.6994 8.48574 33.8779 8.48574H30.8237C30.4468 8.45352 30.072 8.5695 29.7763 8.8098C29.4807 9.0501 29.2865 9.39652 29.2336 9.77803L28.3956 13.5165C28.2034 14.3769 28.4949 14.8053 29.2767 14.8053Z" fill="#EC1488"/>
<path d="M43.0404 17.95L42.782 15.8648H36.9121L38.4293 26.186H43.7559L50.0267 15.8648H44.2329L43.0404 17.95Z" fill="#EC1488"/>
<path d="M50.8947 6.76498L45.6807 15.8648H51.4744L57.0031 6.76498H50.8947Z" fill="#EC1488"/>
<path d="M43.1002 6.76498H37.0249L38.3599 15.8648H44.2298L43.1002 6.76498Z" fill="#EC1488"/>
<path d="M73.8112 11.3335C74.4936 8.28559 73.3198 6.76275 70.2899 6.765H58.3348L57.1157 12.1938H67.0237C67.673 12.1938 67.9236 12.5245 67.7756 13.1858L67.4444 14.64C67.1257 14.486 66.7768 14.4076 66.4241 14.4106H60.0275C58.4507 14.4106 57.214 14.8953 56.3174 15.8648H72.781L73.8112 11.3335Z" fill="#EC1488"/>
<path d="M54.873 15.8513C54.1289 16.7128 53.6246 17.7612 53.4121 18.888L52.7662 21.766C52.1037 24.6902 53.1604 26.1523 55.9363 26.1523H64.6418C67.5679 26.1523 69.3722 24.6295 70.0546 21.5838L71.3465 15.8277L54.873 15.8513ZM65.0592 18.8306L64.7545 20.1802C64.7319 20.3756 64.6365 20.5547 64.4878 20.6803C64.3392 20.806 64.1488 20.8685 63.9561 20.8551H59.1992C58.7653 20.8551 58.5997 20.6324 58.699 20.1802L59.0038 18.8306C59.0255 18.6349 59.1208 18.4553 59.2696 18.3295C59.4184 18.2038 59.6093 18.1415 59.8021 18.1558H64.5424C64.9896 18.1794 65.1619 18.4021 65.0592 18.8441V18.8306Z" fill="#EC1488"/>
<path d="M21.224 -0.00674438H11.6406C8.60851 -0.00674438 6.76339 1.45535 6.10529 4.37953L3.7666 14.8053H22.4298L24.7718 4.37953C25.4365 1.45535 24.2539 -0.00674438 21.224 -0.00674438ZM18.5474 7.13948L18.0107 9.52158H10.5409L11.0775 7.13948C11.114 6.84953 11.2585 6.58493 11.481 6.40034C11.7036 6.21574 11.9872 6.12526 12.2734 6.14753H17.7921C18.4546 6.15203 18.7064 6.48492 18.5474 7.14624V7.13948Z" fill="#03F3F3"/>
<path d="M0 25.1468H5.58834L7.90385 14.8256H2.31881L0 25.1468Z" fill="#03F3F3"/>
<path d="M13.0581 25.1468H18.6796L20.9951 14.8256H15.3769L13.0581 25.1468Z" fill="#03F3F3"/>
<path d="M27.2757 18.8272H24.2215C23.8398 18.7981 23.4617 18.9188 23.1647 19.1648C22.8678 19.4108 22.6746 19.7633 22.6249 20.1499L21.8596 23.5577C21.6587 24.4574 21.9899 24.9073 22.8534 24.9073H23.6981C23.9168 24.9073 23.9963 25.0287 23.9433 25.2716C23.9225 25.3686 23.8902 25.4627 23.8472 25.5517C23.7744 25.6689 23.6851 25.7746 23.5822 25.8655L22.1743 27.3569C22.0654 27.4505 21.9907 27.5789 21.9623 27.7212C21.9292 27.873 22.0518 27.9507 22.3333 27.9507H23.4232C23.5603 27.9508 23.6959 27.9207 23.8205 27.8625C23.9452 27.8042 24.056 27.7193 24.1453 27.6133L26.2521 25.3324C26.5858 25.0196 26.8776 24.6633 27.12 24.2729C27.3263 23.9122 27.475 23.5205 27.5606 23.1123L28.2231 20.1363C28.4119 19.2692 28.0972 18.8272 27.2757 18.8272Z" fill="#03F3F3"/>
<path d="M26.6764 13.7628H29.8598C30.6813 13.7628 31.1849 13.3343 31.3836 12.4739L32.2217 8.7354C32.416 7.87614 32.1014 7.44544 31.2776 7.44319H28.2234C27.8468 7.41104 27.4725 7.52705 27.1774 7.76742C26.8822 8.00778 26.6887 8.35417 26.6367 8.7354L25.7953 12.4739C25.6031 13.3354 25.8969 13.765 26.6764 13.7628Z" fill="#03F3F3"/>
<path d="M40.4402 16.9074L40.1818 14.8256H34.3152L35.829 25.1468H41.1557L47.4264 14.8256H41.6327L40.4402 16.9074Z" fill="#03F3F3"/>
<path d="M48.2977 5.7224L43.0803 14.8256H48.874L54.4028 5.7224H48.2977Z" fill="#03F3F3"/>
<path d="M40.4999 5.7224H34.4246L35.7628 14.8256H41.6294L40.4999 5.7224Z" fill="#03F3F3"/>
<path d="M71.2107 10.2909C71.8976 7.24748 70.7238 5.72465 67.6895 5.7224H55.7343L54.5186 11.1513H64.4232C65.0725 11.1513 65.3231 11.4819 65.1752 12.1432L64.8439 13.5975C64.5251 13.4439 64.1764 13.3655 63.8237 13.368H57.4237C55.8469 13.368 54.6102 13.8539 53.7136 14.8256H70.1871L71.2107 10.2909Z" fill="#03F3F3"/>
<path d="M52.2727 14.8391C51.528 15.6996 51.0245 16.7486 50.8152 17.8758L50.1527 20.7538C49.4901 23.678 50.5469 25.1457 53.3228 25.157H62.0283C64.95 25.157 66.7532 23.6342 67.4378 20.5885L68.7297 14.8357L52.2727 14.8391ZM62.459 17.815L62.1542 19.1647C62.1324 19.3604 62.0372 19.54 61.8884 19.6657C61.7396 19.7915 61.5487 19.8538 61.3559 19.8395H56.6122C56.1783 19.8395 56.0126 19.6202 56.112 19.1647L56.4168 17.815C56.4385 17.6193 56.5338 17.4397 56.6826 17.314C56.8314 17.1882 57.0222 17.1259 57.2151 17.1402H61.9554C62.3894 17.1402 62.5583 17.3595 62.459 17.8015V17.815Z" fill="#03F3F3"/>
<path d="M23.9534 14.8188H19.2628L19.3787 14.306H24.0859L26.0735 5.44233C26.162 5.05886 26.2174 4.66824 26.2391 4.27492H22.4959L22.6085 3.76206H26.2225C26.1165 1.95357 24.8809 1.04263 22.4992 1.04263H12.9158C9.88151 1.04263 8.03639 2.50472 7.3805 5.4289L5.03849 15.8513H3.59089L1.9611 23.1224H5.03849L4.92585 23.6353H1.84515L1.27539 26.176H6.86042L9.17923 15.8513H16.6491L14.3303 26.176H19.9617L22.2805 15.8513H23.7281L23.9534 14.8188ZM11.8293 10.571L12.3626 8.18886C12.3999 7.89863 12.5451 7.634 12.7681 7.44947C12.9912 7.26493 13.2752 7.17457 13.5618 7.19691H19.0839C19.7332 7.19691 19.9838 7.52754 19.8358 8.18886L19.2992 10.571H11.8293Z" fill="white"/>
<path d="M28.5512 19.8698H25.497C25.1151 19.8397 24.7365 19.9603 24.4394 20.2064C24.1422 20.4526 23.9493 20.8055 23.9003 21.1924L23.1351 24.6002C22.9319 25.4999 23.2632 25.9498 24.1289 25.9498H24.9736C25.1889 25.9498 25.2717 26.0713 25.2187 26.3142C25.1959 26.4106 25.1637 26.5044 25.1226 26.5943C25.0498 26.7115 24.9605 26.8172 24.8576 26.9081L23.4498 28.3994C23.3416 28.4924 23.267 28.6194 23.2378 28.7604C23.2046 28.9156 23.3272 28.9932 23.6088 28.9932H24.6821C24.8191 28.9927 24.9544 28.9624 25.079 28.9042C25.2035 28.846 25.3144 28.7613 25.4042 28.6558L27.5077 26.3716C27.8438 26.0614 28.1369 25.7062 28.3789 25.3155C28.5836 24.9541 28.7322 24.5626 28.8195 24.1549L28.9354 23.6353H25.0796L25.1955 23.1224H29.0547L29.4886 21.1789C29.6841 20.3084 29.3859 19.8698 28.5512 19.8698Z" fill="white"/>
<path d="M32.5527 8.48574H29.4985C29.1216 8.45352 28.7468 8.5695 28.4511 8.8098C28.1555 9.0501 27.9613 9.39652 27.9085 9.77803L27.0704 13.5165C26.8782 14.3769 27.1697 14.8053 27.9515 14.8053H31.1349C31.9565 14.8053 32.4644 14.3758 32.6587 13.5165L33.4968 9.77803C33.6889 8.91877 33.3742 8.48799 32.5527 8.48574Z" fill="white"/>
<path d="M49.5696 6.76498L44.3556 15.8648H42.908L41.7155 17.95L41.4571 15.8648H42.9047L42.0699 9.14032H38.3863L38.4989 8.62746H42.007L41.7751 6.76498H35.6998L37.0348 15.8648H35.5872L37.1043 26.186H42.431L43.9746 23.6488H40.2248L40.3407 23.1359H44.286L48.7017 15.8648H50.1493L55.678 6.76498H49.5696Z" fill="white"/>
<path d="M68.7463 9.77802L68.859 9.26515H72.6386C72.4333 7.59612 71.2087 6.7605 68.965 6.75826H57.0098L55.7908 12.1871H65.6988C66.348 12.1871 66.5987 12.5178 66.4507 13.1791L66.1195 14.6332C65.8007 14.4793 65.4519 14.4008 65.0992 14.4038H58.7026C57.1258 14.4038 55.8891 14.8886 54.9925 15.8581H53.5449C52.8008 16.7195 52.2964 17.7679 52.084 18.8947L51.438 21.7728C51.3374 22.2161 51.2764 22.6679 51.2559 23.1224H55.1879L55.072 23.6353H51.2625C51.3917 25.3223 52.5047 26.176 54.6082 26.176H63.3137C66.2398 26.176 68.0441 24.6531 68.7265 21.6075L70.0184 15.8513H71.456L72.473 11.32C72.5931 10.8127 72.6564 10.2931 72.6618 9.77126L68.7463 9.77802ZM63.7344 18.8374L63.4296 20.187C63.4071 20.3824 63.3116 20.5615 63.163 20.6871C63.0144 20.8127 62.824 20.8753 62.6313 20.8618H57.8744C57.4405 20.8618 57.2748 20.6391 57.3742 20.187L57.6757 18.8374C57.6982 18.6414 57.7941 18.4618 57.9435 18.3361C58.0928 18.2103 58.2841 18.1482 58.4773 18.1626H63.2176C63.6648 18.1794 63.8371 18.4021 63.7344 18.8441V18.8374Z" fill="white"/>
</g>
<defs>
<clipPath id="clip0_39_1838">
<rect width="74" height="29" fill="white"/>
</clipPath>
</defs>
</svg>
