<svg width="166" height="51" viewBox="0 0 166 51" fill="none" xmlns="http://www.w3.org/2000/svg">
<path d="M132.601 8V6.5H133.352L133.802 7.10184L132.601 8ZM16 8C16 12.4183 12.4183 16 8 16C3.58173 16 0 12.4183 0 8C0 3.58172 3.58173 0 8 0C12.4183 0 16 3.58172 16 8ZM162.799 50.8982L161.926 49.7315L164.329 47.9352L165.201 49.1018L162.799 50.8982ZM160.182 47.3982L158.438 45.0648L160.84 43.2685L162.585 45.6018L160.182 47.3982ZM156.693 42.7315L154.949 40.3982L157.352 38.6018L159.096 40.9352L156.693 42.7315ZM153.204 38.0648L151.46 35.7315L153.863 33.9352L155.607 36.2685L153.204 38.0648ZM149.716 33.3982L147.971 31.0648L150.374 29.2685L152.118 31.6018L149.716 33.3982ZM146.227 28.7315L144.482 26.3982L146.885 24.6018L148.629 26.9352L146.227 28.7315ZM142.738 24.0648L140.994 21.7315L143.396 19.9352L145.141 22.2685L142.738 24.0648ZM139.249 19.3982L137.505 17.0648L139.907 15.2685L141.652 17.6018L139.249 19.3982ZM135.76 14.7315L134.016 12.3982L136.419 10.6018L138.163 12.9352L135.76 14.7315ZM132.271 10.0648L131.399 8.89816L133.802 7.10184L134.674 8.26852L132.271 10.0648ZM132.601 9.5H131.117V6.5H132.601V9.5ZM128.151 9.5H125.184V6.5H128.151V9.5ZM122.217 9.5H119.251V6.5H122.217V9.5ZM116.284 9.5H113.317V6.5H116.284V9.5ZM110.351 9.5H107.384V6.5H110.351V9.5ZM104.417 9.5H101.45V6.5H104.417V9.5ZM98.4838 9.5H95.5171V6.5H98.4838V9.5ZM92.5504 9.5H89.5837V6.5H92.5504V9.5ZM86.6171 9.5H83.6504V6.5H86.6171V9.5ZM80.6837 9.5H77.717V6.5H80.6837V9.5ZM74.7503 9.5H71.7837V6.5H74.7503V9.5ZM68.817 9.5H65.8503V6.5H68.817V9.5ZM62.8836 9.5H59.9169V6.5H62.8836V9.5ZM56.9502 9.5H53.9836V6.5H56.9502V9.5ZM51.0169 9.5H48.0502V6.5H51.0169V9.5ZM45.0835 9.5H42.1168V6.5H45.0835V9.5ZM39.1501 9.5H36.1835V6.5H39.1501V9.5ZM33.2168 9.5H30.2501V6.5H33.2168V9.5ZM27.2834 9.5H24.3167V6.5H27.2834V9.5ZM21.3501 9.5H18.3834V6.5H21.3501V9.5ZM15.4167 9.5H12.45V6.5H15.4167V9.5ZM9.48332 9.5H8V6.5H9.48332V9.5Z" fill="#4ADEFF"/>
</svg>
