<svg width="240" height="51" viewBox="0 0 240 51" fill="none" xmlns="http://www.w3.org/2000/svg">
<path d="M33.3313 8V6.5H32.5788L32.1289 7.10309L33.3313 8ZM224 8C224 12.4183 227.582 16 232 16C236.418 16 240 12.4183 240 8C240 3.58172 236.418 0 232 0C227.582 0 224 3.58172 224 8ZM3.20231 50.8969L4.07263 49.7302L1.668 47.9364L0.797685 49.1031L3.20231 50.8969ZM5.81325 47.3969L7.55388 45.0636L5.14925 43.2698L3.40862 45.6031L5.81325 47.3969ZM9.2945 42.7302L11.0351 40.3969L8.6305 38.6031L6.88987 40.9364L9.2945 42.7302ZM12.7758 38.0636L14.5164 35.7302L12.1117 33.9364L10.3711 36.2698L12.7758 38.0636ZM16.257 33.3969L17.9976 31.0636L15.593 29.2698L13.8524 31.6031L16.257 33.3969ZM19.7383 28.7302L21.4789 26.3969L19.0742 24.6031L17.3336 26.9364L19.7383 28.7302ZM23.2195 24.0636L24.9601 21.7302L22.5555 19.9364L20.8149 22.2698L23.2195 24.0636ZM26.7008 19.3969L28.4414 17.0636L26.0367 15.2698L24.2961 17.6031L26.7008 19.3969ZM30.182 14.7302L31.9226 12.3969L29.518 10.6031L27.7774 12.9364L30.182 14.7302ZM33.6633 10.0636L34.5336 8.89691L32.1289 7.10309L31.2586 8.26976L33.6633 10.0636ZM33.3313 9.5H34.8363V6.5H33.3313V9.5ZM37.8465 9.5H40.8566V6.5H37.8465V9.5ZM43.8667 9.5H46.8769V6.5H43.8667V9.5ZM49.887 9.5H52.8971V6.5H49.887V9.5ZM55.9072 9.5H58.9174V6.5H55.9072V9.5ZM61.9275 9.5H64.9376V6.5H61.9275V9.5ZM67.9478 9.5H70.9579V6.5H67.9478V9.5ZM73.968 9.5H76.9782V6.5H73.968V9.5ZM79.9883 9.5H82.9984V6.5H79.9883V9.5ZM86.0086 9.5H89.0187V6.5H86.0086V9.5ZM92.0288 9.5H95.039V6.5H92.0288V9.5ZM98.0491 9.5H101.059V6.5H98.0491V9.5ZM104.069 9.5H107.079V6.5H104.069V9.5ZM110.09 9.5H113.1V6.5H110.09V9.5ZM116.11 9.5H119.12V6.5H116.11V9.5ZM122.13 9.5H125.14V6.5H122.13V9.5ZM128.15 9.5H131.161V6.5H128.15V9.5ZM134.171 9.5H137.181V6.5H134.171V9.5ZM140.191 9.5H143.201V6.5H140.191V9.5ZM146.211 9.5H149.221V6.5H146.211V9.5ZM152.231 9.5H155.242V6.5H152.231V9.5ZM158.252 9.5H161.262V6.5H158.252V9.5ZM164.272 9.5H167.282V6.5H164.272V9.5ZM170.292 9.5H173.302V6.5H170.292V9.5ZM176.313 9.5H179.323V6.5H176.313V9.5ZM182.333 9.5H185.343V6.5H182.333V9.5ZM188.353 9.5H191.363V6.5H188.353V9.5ZM194.373 9.5H197.383V6.5H194.373V9.5ZM200.394 9.5H203.404V6.5H200.394V9.5ZM206.414 9.5H209.424V6.5H206.414V9.5ZM212.434 9.5H215.444V6.5H212.434V9.5ZM218.454 9.5H221.465V6.5H218.454V9.5ZM224.475 9.5H227.485V6.5H224.475V9.5ZM230.495 9.5H232V6.5H230.495V9.5Z" fill="#FF71E4"/>
</svg>
