<svg width="123" height="52" viewBox="0 0 123 52" fill="none" xmlns="http://www.w3.org/2000/svg">
<path d="M89.7427 43.5V45H90.4962L90.946 44.3955L89.7427 43.5ZM16 43.5C16 39.0817 12.4183 35.5 8 35.5C3.58172 35.5 0 39.0817 0 43.5C0 47.9183 3.58172 51.5 8 51.5C12.4183 51.5 16 47.9183 16 43.5ZM119.797 0.604458L118.928 1.77112L121.335 3.56221L122.203 2.39554L119.797 0.604458ZM117.192 4.10446L115.455 6.43779L117.862 8.22888L119.599 5.89554L117.192 4.10446ZM113.719 8.77112L111.982 11.1045L114.389 12.8955L116.126 10.5622L113.719 8.77112ZM110.246 13.4378L108.509 15.7711L110.916 17.5622L112.652 15.2289L110.246 13.4378ZM106.773 18.1045L105.036 20.4378L107.443 22.2289L109.179 19.8955L106.773 18.1045ZM103.3 22.7711L101.563 25.1045L103.97 26.8955L105.706 24.5622L103.3 22.7711ZM99.8267 27.4378L98.0902 29.7711L100.497 31.5622L102.233 29.2289L99.8267 27.4378ZM96.3537 32.1045L94.6172 34.4378L97.0239 36.2289L98.7604 33.8955L96.3537 32.1045ZM92.8807 36.7711L91.1442 39.1045L93.5508 40.8955L95.2873 38.5622L92.8807 36.7711ZM89.4076 41.4378L88.5394 42.6045L90.946 44.3955L91.8143 43.2289L89.4076 41.4378ZM89.7427 42H88.283V45H89.7427V42ZM85.3636 42H82.4443V45H85.3636V42ZM79.5249 42H76.6055V45H79.5249V42ZM73.6861 42H70.7667V45H73.6861V42ZM67.8473 42H64.928V45H67.8473V42ZM62.0086 42H59.0892V45H62.0086V42ZM56.1698 42H53.2504V45H56.1698V42ZM50.331 42H47.4117V45H50.331V42ZM44.4923 42H41.5729V45H44.4923V42ZM38.6535 42H35.7341V45H38.6535V42ZM32.8147 42H29.8954V45H32.8147V42ZM26.976 42H24.0566V45H26.976V42ZM21.1372 42H18.2178V45H21.1372V42ZM15.2985 42H12.3791V45H15.2985V42ZM9.45969 42H8V45H9.45969V42Z" fill="#8C14EB"/>
</svg>
