<svg width="78" height="16" viewBox="0 0 78 16" fill="none" xmlns="http://www.w3.org/2000/svg">
<path d="M16 8C16 3.58172 12.4183 0 8 0C3.58172 0 0 3.58172 0 8C0 12.4183 3.58172 16 8 16C12.4183 16 16 12.4183 16 8ZM78 6.5H76.5417V9.5H78V6.5ZM73.625 6.5L70.7083 6.5V9.5H73.625V6.5ZM67.7917 6.5H64.875V9.5H67.7917V6.5ZM61.9583 6.5H59.0417V9.5H61.9583V6.5ZM56.125 6.5H53.2083V9.5H56.125V6.5ZM50.2917 6.5H47.375V9.5H50.2917V6.5ZM44.4583 6.5L41.5417 6.5V9.5H44.4583V6.5ZM38.625 6.5L35.7083 6.5V9.5H38.625V6.5ZM32.7917 6.5H29.875V9.5H32.7917V6.5ZM26.9583 6.5H24.0417V9.5H26.9583V6.5ZM21.125 6.5H18.2083V9.5H21.125V6.5ZM15.2917 6.5L12.375 6.5V9.5H15.2917V6.5ZM9.45833 6.5L8 6.5V9.5H9.45833V6.5Z" fill="#FFEF92"/>
</svg>
