<svg width="190" height="52" viewBox="0 0 190 52" fill="none" xmlns="http://www.w3.org/2000/svg">
<path d="M33.3124 43.5V45H32.5597L32.1098 44.3966L33.3124 43.5ZM174 43.5C174 39.0817 177.582 35.5 182 35.5C186.418 35.5 190 39.0817 190 43.5C190 47.9183 186.418 51.5 182 51.5C177.582 51.5 174 47.9183 174 43.5ZM3.20257 0.603443L4.07236 1.77011L1.66721 3.56322L0.797426 2.39656L3.20257 0.603443ZM5.81194 4.10344L7.55152 6.43678L5.14637 8.22989L3.40679 5.89656L5.81194 4.10344ZM9.29109 8.77011L11.0307 11.1034L8.62552 12.8966L6.88595 10.5632L9.29109 8.77011ZM12.7702 13.4368L14.5098 15.7701L12.1047 17.5632L10.3651 15.2299L12.7702 13.4368ZM16.2494 18.1034L17.989 20.4368L15.5838 22.2299L13.8443 19.8966L16.2494 18.1034ZM19.7286 22.7701L21.4681 25.1034L19.063 26.8966L17.3234 24.5632L19.7286 22.7701ZM23.2077 27.4368L24.9473 29.7701L22.5421 31.5632L20.8026 29.2299L23.2077 27.4368ZM26.6869 32.1034L28.4264 34.4368L26.0213 36.2299L24.2817 33.8966L26.6869 32.1034ZM30.166 36.7701L31.9056 39.1034L29.5004 40.8966L27.7609 38.5632L30.166 36.7701ZM33.6452 41.4368L34.515 42.6034L32.1098 44.3966L31.24 43.2299L33.6452 41.4368ZM33.3124 42H34.7993V45H33.3124V42ZM37.773 42H40.7468V45H37.773V42ZM43.7205 42H46.6943V45H43.7205V42ZM49.668 42H52.6418V45H49.668V42ZM55.6155 42H58.5893V45H55.6155V42ZM61.563 42H64.5368V45H61.563V42ZM67.5105 42H70.4843V45H67.5105V42ZM73.458 42H76.4318V45H73.458V42ZM79.4055 42H82.3793V45H79.4055V42ZM85.353 42H88.3268V45H85.353V42ZM91.3005 42H94.2743V45H91.3005V42ZM97.248 42H100.222V45H97.248V42ZM103.196 42H106.169V45H103.196V42ZM109.143 42H112.117V45H109.143V42ZM115.091 42H118.064V45H115.091V42ZM121.038 42H124.012V45H121.038V42ZM126.986 42H129.959V45H126.986V42ZM132.933 42H135.907V45H132.933V42ZM138.881 42H141.854V45H138.881V42ZM144.828 42H147.802V45H144.828V42ZM150.776 42H153.749V45H150.776V42ZM156.723 42H159.697V45H156.723V42ZM162.671 42H165.644V45H162.671V42ZM168.618 42H171.592V45H168.618V42ZM174.566 42H177.539V45H174.566V42ZM180.513 42H182V45H180.513V42Z" fill="#A1FF92"/>
</svg>
