<svg width="20" height="20" viewBox="0 0 20 20" fill="none" xmlns="http://www.w3.org/2000/svg">
<path d="M16.2475 6.6575L10 12.7475L3.75253 6.6575C3.64091 6.54847 3.49107 6.48743 3.33503 6.48743C3.179 6.48743 3.02916 6.54847 2.91753 6.6575C2.86349 6.71045 2.82055 6.77366 2.79124 6.84342C2.76192 6.91318 2.74683 6.98808 2.74683 7.06375C2.74683 7.13942 2.76192 7.21432 2.79124 7.28408C2.82055 7.35384 2.86349 7.41704 2.91753 7.47L9.56379 13.95C9.6805 14.0638 9.83704 14.1274 10 14.1274C10.163 14.1274 10.3196 14.0638 10.4363 13.95L17.0825 7.47125C17.137 7.41825 17.1802 7.35489 17.2098 7.2849C17.2393 7.21491 17.2545 7.13972 17.2545 7.06375C17.2545 6.98778 17.2393 6.91258 17.2098 6.8426C17.1802 6.77261 17.137 6.70924 17.0825 6.65625C16.9709 6.54722 16.8211 6.48618 16.665 6.48618C16.509 6.48618 16.3592 6.54722 16.2475 6.65625V6.6575Z" fill="white"/>
</svg>
